<svg xmlns="http://www.w3.org/2000/svg" viewBox="0 0 512 512" role="img" aria-label="Migraine Helper icon">
  <defs>
    <linearGradient id="bg" x1="0%" y1="0%" x2="100%" y2="100%">
      <stop offset="0%" stop-color="#dff4ff"/>
      <stop offset="100%" stop-color="#efe7ff"/>
    </linearGradient>
    <linearGradient id="heart" x1="0%" y1="0%" x2="100%" y2="100%">
      <stop offset="0%" stop-color="#cdb4db"/>
      <stop offset="100%" stop-color="#b497c7"/>
    </linearGradient>
  </defs>
  <rect width="512" height="512" rx="124" fill="url(#bg)"/>
  <circle cx="174" cy="142" r="52" fill="#ffffff" opacity="0.65"/>
  <circle cx="388" cy="118" r="28" fill="#ffffff" opacity="0.45"/>
  <path d="M253.8 387c-54.8-34-119.8-79.5-119.8-152.7 0-44.4 33.4-77.6 75.2-77.6 23.4 0 42.6 10.9 54.8 29.6 12.2-18.7 31.4-29.6 54.8-29.6 41.8 0 75.2 33.2 75.2 77.6 0 73.2-65 118.7-119.8 152.7l-10.2 6.3-10.2-6.3z" fill="url(#heart)"/>
  <text x="256" y="292" text-anchor="middle" font-family="-apple-system, BlinkMacSystemFont, 'Segoe UI', sans-serif" font-size="118">🌸</text>
</svg>
