<svg xmlns="http://www.w3.org/2000/svg" viewBox="0 0 192 192" role="img" aria-label="Migraine Helper icon">
  <defs>
    <linearGradient id="bg" x1="0%" y1="0%" x2="100%" y2="100%">
      <stop offset="0%" stop-color="#dff4ff"/>
      <stop offset="100%" stop-color="#efe7ff"/>
    </linearGradient>
    <linearGradient id="heart" x1="0%" y1="0%" x2="100%" y2="100%">
      <stop offset="0%" stop-color="#cdb4db"/>
      <stop offset="100%" stop-color="#b497c7"/>
    </linearGradient>
  </defs>
  <rect width="192" height="192" rx="44" fill="url(#bg)"/>
  <circle cx="64" cy="56" r="22" fill="#ffffff" opacity="0.65"/>
  <circle cx="148" cy="46" r="12" fill="#ffffff" opacity="0.45"/>
  <path d="M95.2 145c-20.6-12.8-45.1-29.9-45.1-57.4 0-16.7 12.6-29.2 28.3-29.2 8.8 0 16 4.1 20.6 11.1 4.6-7 11.8-11.1 20.6-11.1 15.7 0 28.3 12.5 28.3 29.2 0 27.5-24.5 44.6-45.1 57.4l-3.8 2.4-3.8-2.4z" fill="url(#heart)"/>
  <text x="96" y="110" text-anchor="middle" font-family="-apple-system, BlinkMacSystemFont, 'Segoe UI', sans-serif" font-size="44">🌸</text>
</svg>
